<?xml version="1.0" standalone="no"?><svg xmlns:xlink="http://www.w3.org/1999/xlink" xmlns="http://www.w3.org/2000/svg" viewBox="0 0 1600 900.0060670670931" preserveAspectRatio="xMaxYMax slice"><g transform="scale(1.3867581927073853)"><rect x="0" y="0" width="1153.7777777777778" height="649" fill="#ffffff"/><rect x="0" y="0" width="72.11" height="72.11" fill="#ff7294"/><path d="M 0 72.11 A 72.11 72.11 0 0 1  72.11 0 L 0 72.11 A 72.11 72.11 0 0 0 72.11 0" fill="#ff97b0"/><rect x="72.11" y="0" width="72.11" height="72.11" fill="#fff3f6"/><path d="M 72.11 0 A 72.11 72.11 0 0 1 144.22 72.11 L 72.11 72.11L72.11 0" fill="#ff4874"/><rect x="144.22" y="0" width="72.11" height="72.11" fill="#aab8f4"/><path d="M 144.22 0 A 72.11 72.11 0 0 1  216.32999999999998 72.11 L 144.22 0 A 72.11 72.11 0 0 0 216.32999999999998 72.11" fill="#bfcaf7"/><rect x="216.33" y="0" width="72.11" height="72.11" fill="#ffd3dd"/><path d="M 216.33 72.11 A 72.11 72.11 0 0 0 288.44 0 L 216.33 0L216.33 72.11" fill="#ffb0c2"/><rect x="288.44" y="0" width="72.11" height="72.11" fill="#ff547d"/><polygon points="288.44,0 360.55,0 288.44,72.11" fill="#94a6f1"/><rect x="360.56" y="0" width="72.11" height="72.11" fill="#aab8f4"/><rect x="360.56" y="0" width="72.11" height="72.11" fill="#bac5f6"/><rect x="432.67" y="0" width="72.11" height="72.11" fill="#ff6a8e"/><polygon points="504.78000000000003,0 504.78000000000003,72.11 432.67,72.11" fill="#ff4f79"/><rect x="504.78" y="0" width="72.11" height="72.11" fill="#fff1f4"/><rect x="504.78" y="0" width="72.11" height="72.11" fill="#ff9bb3"/><rect x="576.89" y="0" width="72.11" height="72.11" fill="#ff3d6b"/><rect x="576.89" y="0" width="72.11" height="72.11" fill="#ff7f9d"/><rect x="649" y="0" width="72.11" height="72.11" fill="#ffe8ee"/><path d="M 649 72.11 A 72.11 72.11 0 0 0 721.11 0 L 649 0L649 72.11" fill="#798fee"/><rect x="721.11" y="0" width="72.11" height="72.11" fill="#ffb6c7"/><rect x="721.11" y="0" width="72.11" height="72.11" fill="#2f52e4"/><rect x="793.22" y="0" width="72.11" height="72.11" fill="#3355e4"/><polygon points="793.22,0 865.33,72.11 793.22,72.11" fill="#c5cff7"/><rect x="865.33" y="0" width="72.11" height="72.11" fill="#d0d8f9"/><path d="M 865.33 0 A 72.11 72.11 0 0 0 937.44 72.11 L 937.44 0L865.33 0" fill="#ff819f"/><rect x="937.44" y="0" width="72.11" height="72.11" fill="#ffc8d5"/><path d="M 937.44 0 A 72.11 72.11 0 0 1 1009.5500000000001 72.11 L 937.44 72.11L937.44 0" fill="#ffadc1"/><rect x="1009.56" y="0" width="72.11" height="72.11" fill="#8499ef"/><polygon points="1009.56,0 1081.6699999999998,0 1081.6699999999998,72.11" fill="#8197ef"/><rect x="1081.67" y="0" width="72.11" height="72.11" fill="#ffd6e0"/><polygon points="1081.67,0 1153.78,0 1081.67,72.11" fill="#cad3f8"/><rect x="0" y="72.11" width="72.11" height="72.11" fill="#3658e5"/><rect x="0" y="72.11" width="72.11" height="72.11" fill="#8a9ef0"/><rect x="72.11" y="72.11" width="72.11" height="72.11" fill="#ffe1e8"/><polygon points="72.11,72.11 144.22,144.22 72.11,144.22" fill="#1a41e1"/><rect x="144.22" y="72.11" width="72.11" height="72.11" fill="#c4cef7"/><rect x="144.22" y="72.11" width="72.11" height="72.11" fill="#3e5ee6"/><rect x="216.33" y="72.11" width="72.11" height="72.11" fill="#274ce3"/><path d="M 216.33 144.22 A 72.11 72.11 0 0 0 288.44 72.11 L 216.33 72.11L216.33 144.22" fill="#ff678b"/><rect x="288.44" y="72.11" width="72.11" height="72.11" fill="#ff7c9b"/><rect x="288.44" y="72.11" width="72.11" height="72.11" fill="#ffa8bd"/><rect x="360.56" y="72.11" width="72.11" height="72.11" fill="#fdfdff"/><rect x="360.56" y="72.11" width="72.11" height="72.11" fill="#ffe5eb"/><rect x="432.67" y="72.11" width="72.11" height="72.11" fill="#ffcbd8"/><rect x="432.67" y="72.11" width="72.11" height="72.11" fill="#526fe8"/><rect x="504.78" y="72.11" width="72.11" height="72.11" fill="#ffc4d2"/><polygon points="576.89,72.11 576.89,144.22 504.78,144.22" fill="#ffc0cf"/><rect x="576.89" y="72.11" width="72.11" height="72.11" fill="#e0e5fb"/><rect x="576.89" y="72.11" width="72.11" height="72.11" fill="#ff658a"/><rect x="649" y="72.11" width="72.11" height="72.11" fill="#728aed"/><rect x="649" y="72.11" width="72.11" height="72.11" fill="#2146e2"/><rect x="721.11" y="72.11" width="72.11" height="72.11" fill="#3759e5"/><rect x="721.11" y="72.11" width="72.11" height="72.11" fill="#ffe7ed"/><rect x="793.22" y="72.11" width="72.11" height="72.11" fill="#5471e9"/><path d="M 793.22 72.11 A 72.11 72.11 0 0 1 865.33 144.22 L 793.22 144.22L793.22 72.11" fill="#ffdce5"/><rect x="865.33" y="72.11" width="72.11" height="72.11" fill="#ffe5eb"/><path d="M 865.33 72.11 A 72.11 72.11 0 0 0 937.44 144.22 L 937.44 72.11L865.33 72.11" fill="#5d79ea"/><rect x="937.44" y="72.11" width="72.11" height="72.11" fill="#ff3b69"/><polygon points="937.44,72.11 1009.5500000000001,72.11 937.44,144.22" fill="#ccd5f8"/><rect x="1009.56" y="72.11" width="72.11" height="72.11" fill="#ff5d83"/><path d="M 1009.56 144.22 A 72.11 72.11 0 0 0 1081.6699999999998 72.11 L 1009.56 72.11L1009.56 144.22" fill="#fff6f8"/><rect x="1081.67" y="72.11" width="72.11" height="72.11" fill="#cdd5f8"/><polygon points="1153.78,72.11 1153.78,144.22 1081.67,144.22" fill="#ff6186"/><rect x="0" y="144.22" width="72.11" height="72.11" fill="#7d93ee"/><polygon points="72.11,144.22 72.11,216.32999999999998 0,216.32999999999998" fill="#ffd3dd"/><rect x="72.11" y="144.22" width="72.11" height="72.11" fill="#ff5d84"/><polygon points="72.11,144.22 144.22,216.32999999999998 72.11,216.32999999999998" fill="#3456e5"/><rect x="144.22" y="144.22" width="72.11" height="72.11" fill="#6680eb"/><rect x="144.22" y="144.22" width="72.11" height="72.11" fill="#8297ef"/><rect x="216.33" y="144.22" width="72.11" height="72.11" fill="#2c50e4"/><polygon points="288.44,144.22 288.44,216.32999999999998 216.33,216.32999999999998" fill="#3557e5"/><rect x="288.44" y="144.22" width="72.11" height="72.11" fill="#ffa9be"/><polygon points="288.44,144.22 360.55,216.32999999999998 288.44,216.32999999999998" fill="#dce2fa"/><rect x="360.56" y="144.22" width="72.11" height="72.11" fill="#ff4572"/><path d="M 360.56 144.22 A 72.11 72.11 0 0 0 432.67 216.32999999999998 L 432.67 144.22L360.56 144.22" fill="#a1b1f3"/><rect x="432.67" y="144.22" width="72.11" height="72.11" fill="#ffc3d1"/><rect x="432.67" y="144.22" width="72.11" height="72.11" fill="#ffe7ed"/><rect x="504.78" y="144.22" width="72.11" height="72.11" fill="#ff3767"/><path d="M 504.78 144.22 A 72.11 72.11 0 0 1 576.89 216.32999999999998 L 504.78 216.32999999999998L504.78 144.22" fill="#ff507a"/><rect x="576.89" y="144.22" width="72.11" height="72.11" fill="#627ceb"/><path d="M 576.89 216.32999999999998 A 72.11 72.11 0 0 1  649 144.22 L 576.89 216.32999999999998 A 72.11 72.11 0 0 0 649 144.22" fill="#91a4f1"/><rect x="649" y="144.22" width="72.11" height="72.11" fill="#f5f6fe"/><polygon points="721.11,144.22 721.11,216.32999999999998 649,216.32999999999998" fill="#c4cef7"/><rect x="721.11" y="144.22" width="72.11" height="72.11" fill="#ff7a99"/><polygon points="793.22,144.22 793.22,216.32999999999998 721.11,216.32999999999998" fill="#ff82a0"/><rect x="793.22" y="144.22" width="72.11" height="72.11" fill="#ff9ab2"/><path d="M 793.22 144.22 A 72.11 72.11 0 0 1  865.33 216.32999999999998 L 793.22 144.22 A 72.11 72.11 0 0 0 865.33 216.32999999999998" fill="#ffdae3"/><rect x="865.33" y="144.22" width="72.11" height="72.11" fill="#ff96af"/><rect x="865.33" y="144.22" width="72.11" height="72.11" fill="#f1f4fd"/><rect x="937.44" y="144.22" width="72.11" height="72.11" fill="#93a5f1"/><path d="M 937.44 144.22 A 72.11 72.11 0 0 0 1009.5500000000001 216.32999999999998 L 1009.5500000000001 144.22L937.44 144.22" fill="#ffdfe7"/><rect x="1009.56" y="144.22" width="72.11" height="72.11" fill="#ffd0db"/><polygon points="1081.6699999999998,144.22 1081.6699999999998,216.32999999999998 1009.56,216.32999999999998" fill="#ff93ac"/><rect x="1081.67" y="144.22" width="72.11" height="72.11" fill="#ff9cb3"/><polygon points="1153.78,144.22 1153.78,216.32999999999998 1081.67,216.32999999999998" fill="#dfe4fb"/><rect x="0" y="216.33" width="72.11" height="72.11" fill="#ffe1e8"/><polygon points="72.11,216.33 72.11,288.44 0,288.44" fill="#4e6ce8"/><rect x="72.11" y="216.33" width="72.11" height="72.11" fill="#ebeffc"/><polygon points="72.11,216.33 144.22,216.33 72.11,288.44" fill="#ffb4c6"/><rect x="144.22" y="216.33" width="72.11" height="72.11" fill="#ffc5d3"/><polygon points="144.22,216.33 216.32999999999998,288.44 144.22,288.44" fill="#abb9f4"/><rect x="216.33" y="216.33" width="72.11" height="72.11" fill="#ff9eb5"/><rect x="216.33" y="216.33" width="72.11" height="72.11" fill="#ff416e"/><rect x="288.44" y="216.33" width="72.11" height="72.11" fill="#607bea"/><rect x="288.44" y="216.33" width="72.11" height="72.11" fill="#ff7a9a"/><rect x="360.56" y="216.33" width="72.11" height="72.11" fill="#ff7d9c"/><path d="M 360.56 216.33 A 72.11 72.11 0 0 1  432.67 288.44 L 360.56 216.33 A 72.11 72.11 0 0 0 432.67 288.44" fill="#b2bff5"/><rect x="432.67" y="216.33" width="72.11" height="72.11" fill="#ffbdcc"/><rect x="432.67" y="216.33" width="72.11" height="72.11" fill="#ff406e"/><rect x="504.78" y="216.33" width="72.11" height="72.11" fill="#ff91ab"/><path d="M 504.78 288.44 A 72.11 72.11 0 0 1  576.89 216.33 L 504.78 288.44 A 72.11 72.11 0 0 0 576.89 216.33" fill="#ff5c83"/><rect x="576.89" y="216.33" width="72.11" height="72.11" fill="#3658e5"/><rect x="576.89" y="216.33" width="72.11" height="72.11" fill="#ff3f6d"/><rect x="649" y="216.33" width="72.11" height="72.11" fill="#3254e4"/><path d="M 649 288.44 A 72.11 72.11 0 0 1  721.11 216.33 L 649 288.44 A 72.11 72.11 0 0 0 721.11 216.33" fill="#6b84ec"/><rect x="721.11" y="216.33" width="72.11" height="72.11" fill="#4363e7"/><rect x="721.11" y="216.33" width="72.11" height="72.11" fill="#ffb6c7"/><rect x="793.22" y="216.33" width="72.11" height="72.11" fill="#ff6b8e"/><polygon points="793.22,216.33 865.33,216.33 865.33,288.44" fill="#ffdde5"/><rect x="865.33" y="216.33" width="72.11" height="72.11" fill="#ff6287"/><rect x="865.33" y="216.33" width="72.11" height="72.11" fill="#ff8ba7"/><rect x="937.44" y="216.33" width="72.11" height="72.11" fill="#ffc7d4"/><rect x="937.44" y="216.33" width="72.11" height="72.11" fill="#ff7696"/><rect x="1009.56" y="216.33" width="72.11" height="72.11" fill="#8095ee"/><path d="M 1009.56 288.44 A 72.11 72.11 0 0 1  1081.6699999999998 216.33 L 1009.56 288.44 A 72.11 72.11 0 0 0 1081.6699999999998 216.33" fill="#5874e9"/><rect x="1081.67" y="216.33" width="72.11" height="72.11" fill="#ff8da8"/><rect x="1081.67" y="216.33" width="72.11" height="72.11" fill="#ffa5ba"/><rect x="0" y="288.44" width="72.11" height="72.11" fill="#5f7aea"/><path d="M 0 288.44 A 72.11 72.11 0 0 1 72.11 360.55 L 0 360.55L0 288.44" fill="#ff95ae"/><rect x="72.11" y="288.44" width="72.11" height="72.11" fill="#ff3867"/><polygon points="144.22,288.44 144.22,360.55 72.11,360.55" fill="#ff547d"/><rect x="144.22" y="288.44" width="72.11" height="72.11" fill="#fffbfc"/><path d="M 144.22 360.55 A 72.11 72.11 0 0 0 216.32999999999998 288.44 L 144.22 288.44L144.22 360.55" fill="#ff698d"/><rect x="216.33" y="288.44" width="72.11" height="72.11" fill="#ff3e6c"/><path d="M 216.33 360.55 A 72.11 72.11 0 0 1  288.44 288.44 L 288.44 360.55L216.33 360.55" fill="#7990ee"/><rect x="288.44" y="288.44" width="72.11" height="72.11" fill="#3254e4"/><polygon points="288.44,288.44 360.55,288.44 288.44,360.55" fill="#ffe5eb"/><rect x="360.56" y="288.44" width="72.11" height="72.11" fill="#ffacc0"/><polygon points="432.67,288.44 432.67,360.55 360.56,360.55" fill="#ff5e84"/><rect x="432.67" y="288.44" width="72.11" height="72.11" fill="#c5cff8"/><path d="M 432.67 360.55 A 72.11 72.11 0 0 1  504.78000000000003 288.44 L 432.67 360.55 A 72.11 72.11 0 0 0 504.78000000000003 288.44" fill="#8297ef"/><rect x="504.78" y="288.44" width="72.11" height="72.11" fill="#3f5fe6"/><path d="M 504.78 288.44 A 72.11 72.11 0 0 0 576.89 360.55 L 576.89 288.44L504.78 288.44" fill="#7990ee"/><rect x="576.89" y="288.44" width="72.11" height="72.11" fill="#eef1fd"/><path d="M 576.89 288.44 A 72.11 72.11 0 0 1  649 360.55 L 576.89 288.44 A 72.11 72.11 0 0 0 649 360.55" fill="#ff5a81"/><rect x="649" y="288.44" width="72.11" height="72.11" fill="#f8fafe"/><rect x="649" y="288.44" width="72.11" height="72.11" fill="#ff678b"/><rect x="721.11" y="288.44" width="72.11" height="72.11" fill="#ff5f85"/><polygon points="721.11,288.44 793.22,288.44 793.22,360.55" fill="#6b84ec"/><rect x="793.22" y="288.44" width="72.11" height="72.11" fill="#2046e2"/><polygon points="793.22,288.44 865.33,360.55 793.22,360.55" fill="#ffc2d1"/><rect x="865.33" y="288.44" width="72.11" height="72.11" fill="#ff3666"/><path d="M 865.33 360.55 A 72.11 72.11 0 0 1  937.44 288.44 L 865.33 360.55 A 72.11 72.11 0 0 0 937.44 288.44" fill="#627deb"/><rect x="937.44" y="288.44" width="72.11" height="72.11" fill="#92a4f1"/><rect x="937.44" y="288.44" width="72.11" height="72.11" fill="#ff6187"/><rect x="1009.56" y="288.44" width="72.11" height="72.11" fill="#ff5d83"/><path d="M 1009.56 288.44 A 72.11 72.11 0 0 1 1081.6699999999998 360.55 L 1009.56 360.55L1009.56 288.44" fill="#294ee3"/><rect x="1081.67" y="288.44" width="72.11" height="72.11" fill="#3b5ce6"/><path d="M 1081.67 288.44 A 72.11 72.11 0 0 1  1153.78 360.55 L 1081.67 288.44 A 72.11 72.11 0 0 0 1153.78 360.55" fill="#ffacc0"/><rect x="0" y="360.56" width="72.11" height="72.11" fill="#aebbf4"/><rect x="0" y="360.56" width="72.11" height="72.11" fill="#ff96af"/><rect x="72.11" y="360.56" width="72.11" height="72.11" fill="#c7d0f8"/><polygon points="72.11,360.56 144.22,360.56 72.11,432.67" fill="#a9b8f4"/><rect x="144.22" y="360.56" width="72.11" height="72.11" fill="#d6ddfa"/><rect x="144.22" y="360.56" width="72.11" height="72.11" fill="#ffeff3"/><rect x="216.33" y="360.56" width="72.11" height="72.11" fill="#6d85ec"/><rect x="216.33" y="360.56" width="72.11" height="72.11" fill="#a6b5f3"/><rect x="288.44" y="360.56" width="72.11" height="72.11" fill="#2449e3"/><polygon points="288.44,360.56 360.55,360.56 288.44,432.67" fill="#778eed"/><rect x="360.56" y="360.56" width="72.11" height="72.11" fill="#ffd6e0"/><rect x="360.56" y="360.56" width="72.11" height="72.11" fill="#ff86a3"/><rect x="432.67" y="360.56" width="72.11" height="72.11" fill="#d3daf9"/><path d="M 432.67 432.67 A 72.11 72.11 0 0 0 504.78000000000003 360.56 L 432.67 360.56L432.67 432.67" fill="#8b9ef0"/><rect x="504.78" y="360.56" width="72.11" height="72.11" fill="#b5c2f5"/><rect x="504.78" y="360.56" width="72.11" height="72.11" fill="#8c9ff0"/><rect x="576.89" y="360.56" width="72.11" height="72.11" fill="#ced6f9"/><rect x="576.89" y="360.56" width="72.11" height="72.11" fill="#afbcf5"/><rect x="649" y="360.56" width="72.11" height="72.11" fill="#ff4974"/><polygon points="649,360.56 721.11,360.56 649,432.67" fill="#ffa6bb"/><rect x="721.11" y="360.56" width="72.11" height="72.11" fill="#fff6f8"/><polygon points="721.11,360.56 793.22,360.56 793.22,432.67" fill="#516ee8"/><rect x="793.22" y="360.56" width="72.11" height="72.11" fill="#728aed"/><path d="M 793.22 360.56 A 72.11 72.11 0 0 1 865.33 432.67 L 793.22 432.67L793.22 360.56" fill="#ffb4c5"/><rect x="865.33" y="360.56" width="72.11" height="72.11" fill="#3254e4"/><rect x="865.33" y="360.56" width="72.11" height="72.11" fill="#ffe3ea"/><rect x="937.44" y="360.56" width="72.11" height="72.11" fill="#ff688c"/><rect x="937.44" y="360.56" width="72.11" height="72.11" fill="#ff99b1"/><rect x="1009.56" y="360.56" width="72.11" height="72.11" fill="#3c5de6"/><path d="M 1009.56 432.67 A 72.11 72.11 0 0 1  1081.6699999999998 360.56 L 1009.56 432.67 A 72.11 72.11 0 0 0 1081.6699999999998 360.56" fill="#ffe5eb"/><rect x="1081.67" y="360.56" width="72.11" height="72.11" fill="#ff7294"/><polygon points="1153.78,360.56 1153.78,432.67 1081.67,432.67" fill="#ff416e"/><rect x="0" y="432.67" width="72.11" height="72.11" fill="#748bed"/><rect x="0" y="432.67" width="72.11" height="72.11" fill="#4161e6"/><rect x="72.11" y="432.67" width="72.11" height="72.11" fill="#ff9db4"/><rect x="72.11" y="432.67" width="72.11" height="72.11" fill="#ffc6d4"/><rect x="144.22" y="432.67" width="72.11" height="72.11" fill="#ff4571"/><rect x="144.22" y="432.67" width="72.11" height="72.11" fill="#3053e4"/><rect x="216.33" y="432.67" width="72.11" height="72.11" fill="#ff3867"/><polygon points="216.33,432.67 288.44,432.67 216.33,504.78000000000003" fill="#ff6187"/><rect x="288.44" y="432.67" width="72.11" height="72.11" fill="#ff7395"/><rect x="288.44" y="432.67" width="72.11" height="72.11" fill="#ffabbf"/><rect x="360.56" y="432.67" width="72.11" height="72.11" fill="#b4c1f5"/><polygon points="360.56,432.67 432.67,432.67 432.67,504.78000000000003" fill="#ffe7ed"/><rect x="432.67" y="432.67" width="72.11" height="72.11" fill="#879bef"/><path d="M 432.67 432.67 A 72.11 72.11 0 0 0 504.78000000000003 504.78000000000003 L 504.78000000000003 432.67L432.67 432.67" fill="#e7ebfc"/><rect x="504.78" y="432.67" width="72.11" height="72.11" fill="#7e94ee"/><polygon points="504.78,432.67 576.89,432.67 504.78,504.78000000000003" fill="#ff7193"/><rect x="576.89" y="432.67" width="72.11" height="72.11" fill="#acbaf4"/><path d="M 576.89 432.67 A 72.11 72.11 0 0 1 649 504.78000000000003 L 576.89 504.78000000000003L576.89 432.67" fill="#a6b5f3"/><rect x="649" y="432.67" width="72.11" height="72.11" fill="#fffbfc"/><path d="M 649 432.67 A 72.11 72.11 0 0 0 721.11 504.78000000000003 L 721.11 432.67L649 432.67" fill="#2348e2"/><rect x="721.11" y="432.67" width="72.11" height="72.11" fill="#f3f5fd"/><polygon points="721.11,432.67 793.22,432.67 721.11,504.78000000000003" fill="#ff557e"/><rect x="793.22" y="432.67" width="72.11" height="72.11" fill="#1e44e2"/><polygon points="793.22,432.67 865.33,432.67 793.22,504.78000000000003" fill="#3456e5"/><rect x="865.33" y="432.67" width="72.11" height="72.11" fill="#ffcdd9"/><polygon points="865.33,432.67 937.44,432.67 937.44,504.78000000000003" fill="#2a4ee3"/><rect x="937.44" y="432.67" width="72.11" height="72.11" fill="#ffdee6"/><rect x="937.44" y="432.67" width="72.11" height="72.11" fill="#f4f6fe"/><rect x="1009.56" y="432.67" width="72.11" height="72.11" fill="#ccd5f8"/><path d="M 1009.56 504.78000000000003 A 72.11 72.11 0 0 1  1081.6699999999998 432.67 L 1081.6699999999998 504.78000000000003L1009.56 504.78000000000003" fill="#264ae3"/><rect x="1081.67" y="432.67" width="72.11" height="72.11" fill="#8297ef"/><polygon points="1153.78,432.67 1153.78,504.78000000000003 1081.67,504.78000000000003" fill="#5d78ea"/><rect x="0" y="504.78" width="72.11" height="72.11" fill="#ff4e78"/><rect x="0" y="504.78" width="72.11" height="72.11" fill="#ff829f"/><rect x="72.11" y="504.78" width="72.11" height="72.11" fill="#ff98b0"/><path d="M 72.11 576.89 A 72.11 72.11 0 0 1  144.22 504.78 L 144.22 576.89L72.11 576.89" fill="#4363e7"/><rect x="144.22" y="504.78" width="72.11" height="72.11" fill="#9bacf2"/><path d="M 144.22 576.89 A 72.11 72.11 0 0 0 216.32999999999998 504.78 L 144.22 504.78L144.22 576.89" fill="#ebeffc"/><rect x="216.33" y="504.78" width="72.11" height="72.11" fill="#9eaef2"/><rect x="216.33" y="504.78" width="72.11" height="72.11" fill="#ffe8ee"/><rect x="288.44" y="504.78" width="72.11" height="72.11" fill="#ff537c"/><polygon points="360.55,504.78 360.55,576.89 288.44,576.89" fill="#ffdce5"/><rect x="360.56" y="504.78" width="72.11" height="72.11" fill="#4f6de8"/><polygon points="360.56,504.78 432.67,504.78 360.56,576.89" fill="#5471e9"/><rect x="432.67" y="504.78" width="72.11" height="72.11" fill="#3557e5"/><path d="M 432.67 504.78 A 72.11 72.11 0 0 1 504.78000000000003 576.89 L 432.67 576.89L432.67 504.78" fill="#7f95ee"/><rect x="504.78" y="504.78" width="72.11" height="72.11" fill="#8196ef"/><path d="M 504.78 504.78 A 72.11 72.11 0 0 1 576.89 576.89 L 504.78 576.89L504.78 504.78" fill="#a2b2f3"/><rect x="576.89" y="504.78" width="72.11" height="72.11" fill="#6881eb"/><polygon points="576.89,504.78 649,504.78 649,576.89" fill="#4564e7"/><rect x="649" y="504.78" width="72.11" height="72.11" fill="#a4b3f3"/><path d="M 649 576.89 A 72.11 72.11 0 0 1  721.11 504.78 L 721.11 576.89L649 576.89" fill="#7e94ee"/><rect x="721.11" y="504.78" width="72.11" height="72.11" fill="#5270e9"/><polygon points="721.11,504.78 793.22,504.78 721.11,576.89" fill="#738bed"/><rect x="793.22" y="504.78" width="72.11" height="72.11" fill="#b8c4f6"/><rect x="793.22" y="504.78" width="72.11" height="72.11" fill="#ff6287"/><rect x="865.33" y="504.78" width="72.11" height="72.11" fill="#ff577f"/><rect x="865.33" y="504.78" width="72.11" height="72.11" fill="#fff4f7"/><rect x="937.44" y="504.78" width="72.11" height="72.11" fill="#ffb6c7"/><rect x="937.44" y="504.78" width="72.11" height="72.11" fill="#ff83a0"/><rect x="1009.56" y="504.78" width="72.11" height="72.11" fill="#99aaf2"/><polygon points="1081.6699999999998,504.78 1081.6699999999998,576.89 1009.56,576.89" fill="#ff96af"/><rect x="1081.67" y="504.78" width="72.11" height="72.11" fill="#5773e9"/><rect x="1081.67" y="504.78" width="72.11" height="72.11" fill="#5874e9"/><rect x="0" y="576.89" width="72.11" height="72.11" fill="#ffe0e8"/><polygon points="0,576.89 72.11,576.89 0,649" fill="#3d5ee6"/><rect x="72.11" y="576.89" width="72.11" height="72.11" fill="#5c77ea"/><polygon points="72.11,576.89 144.22,649 72.11,649" fill="#ff8aa6"/><rect x="144.22" y="576.89" width="72.11" height="72.11" fill="#b0bdf5"/><rect x="144.22" y="576.89" width="72.11" height="72.11" fill="#a1b1f3"/><rect x="216.33" y="576.89" width="72.11" height="72.11" fill="#7990ee"/><rect x="216.33" y="576.89" width="72.11" height="72.11" fill="#ffc9d6"/><rect x="288.44" y="576.89" width="72.11" height="72.11" fill="#ffa3b9"/><path d="M 288.44 576.89 A 72.11 72.11 0 0 1  360.55 649 L 288.44 576.89 A 72.11 72.11 0 0 0 360.55 649" fill="#385ae5"/><rect x="360.56" y="576.89" width="72.11" height="72.11" fill="#ff3f6d"/><rect x="360.56" y="576.89" width="72.11" height="72.11" fill="#ff4e78"/><rect x="432.67" y="576.89" width="72.11" height="72.11" fill="#ff537c"/><rect x="432.67" y="576.89" width="72.11" height="72.11" fill="#ffcdd9"/><rect x="504.78" y="576.89" width="72.11" height="72.11" fill="#ff6c8f"/><polygon points="576.89,576.89 576.89,649 504.78,649" fill="#f8f9fe"/><rect x="576.89" y="576.89" width="72.11" height="72.11" fill="#ff8fa9"/><polygon points="576.89,576.89 649,576.89 649,649" fill="#ffcad7"/><rect x="649" y="576.89" width="72.11" height="72.11" fill="#ebeefc"/><path d="M 649 649 A 72.11 72.11 0 0 1  721.11 576.89 L 649 649 A 72.11 72.11 0 0 0 721.11 576.89" fill="#97a8f1"/><rect x="721.11" y="576.89" width="72.11" height="72.11" fill="#a0b0f3"/><polygon points="721.11,576.89 793.22,649 721.11,649" fill="#f0f3fd"/><rect x="793.22" y="576.89" width="72.11" height="72.11" fill="#f9fafe"/><polygon points="793.22,576.89 865.33,649 793.22,649" fill="#ccd4f8"/><rect x="865.33" y="576.89" width="72.11" height="72.11" fill="#ff3e6c"/><polygon points="937.44,576.89 937.44,649 865.33,649" fill="#2045e2"/><rect x="937.44" y="576.89" width="72.11" height="72.11" fill="#ffdce4"/><rect x="937.44" y="576.89" width="72.11" height="72.11" fill="#ffcbd7"/><rect x="1009.56" y="576.89" width="72.11" height="72.11" fill="#3a5be5"/><rect x="1009.56" y="576.89" width="72.11" height="72.11" fill="#ff88a5"/><rect x="1081.67" y="576.89" width="72.11" height="72.11" fill="#3153e4"/><polygon points="1153.78,576.89 1153.78,649 1081.67,649" fill="#1c42e1"/></g></svg>